/vscmnt/brussel_pixiu_data/_data_brussel/112/vsc11236/PredSimResults/SUBJ09mtu3D/weighted-expIG/worker_05.mot
version=1
nRows=10
nColumns=50
inDegrees=yes
endheader
                time	         pelvis_tilt	         pelvis_list	     pelvis_rotation	           pelvis_tx	           pelvis_ty	           pelvis_tz	       hip_flexion_r	     hip_adduction_r	      hip_rotation_r	        knee_angle_r	       ankle_angle_r	         mtp_angle_r	       hip_flexion_l	     hip_adduction_l	      hip_rotation_l	        knee_angle_l	       ankle_angle_l	         mtp_angle_l	    lumbar_extension	      lumbar_bending	     lumbar_rotation	 ercspn_r/activation	 intobl_r/activation	 extobl_r/activation	    abd_r/activation	    add_r/activation	hamstrings_r/activation	bifemsh_r/activation	glut_max_r/activation	iliopsoas_r/activation	rect_fem_r/activation	  vasti_r/activation	gastroc_r/activation	 soleus_r/activation	tib_ant_r/activation	 ercspn_l/activation	 intobl_l/activation	 extobl_l/activation	    abd_l/activation	    add_l/activation	hamstrings_l/activation	bifemsh_l/activation	glut_max_l/activation	iliopsoas_l/activation	rect_fem_l/activation	  vasti_l/activation	gastroc_l/activation	 soleus_l/activation	tib_ant_l/activation	
          1.32848081	         -7.96492251	         -4.76277310	          8.21313842	          1.46132889	          0.98283186	         -0.01453233	         31.23918779	          1.26616277	         -5.43356884	         -2.17452715	          6.44190076	          0.21634848	         -9.47207034	         -4.83764884	          6.76349445	         -6.43374338	         11.34565198	         26.51463844	          0.07750480	          2.85999747	         -3.39742869	          0.08562007	          0.13088333	          0.03320288	          0.01221412	          0.08353174	          0.10965722	          0.19669676	          0.00999999	          0.10527887	          0.00999999	          0.00999999	          0.01119914	          0.00999999	          0.26674941	          0.03433446	          0.00999999	          0.00999999	          0.06088634	          0.02019883	          0.02487605	          0.14257969	          0.06133004	          0.49493079	          0.00999999	          0.00999999	          0.35625033	          0.29600854	          0.01491849	
          1.34176562	         -8.07530225	         -4.66777609	          8.21459080	          1.47926769	          0.98046495	         -0.01411487	         31.45787917	          1.35376758	         -5.29556581	         -4.00679044	          6.00080182	          0.21455118	         -9.80622457	         -4.77605343	          6.35074278	         -7.59000695	         10.77834229	         28.42583871	          0.38703261	          3.15561184	         -3.48109205	          0.07009917	          0.10715727	          0.02718398	          0.00999999	          0.13731903	          0.09535200	          0.16104027	          0.07530801	          0.08619429	          0.00999999	          0.00999999	          0.02256028	          0.01491850	          0.27856988	          0.08003396	          0.00999999	          0.00999999	          0.04984908	          0.05372844	          0.02036660	          0.11673335	          0.05021235	          0.51038596	          0.00999999	          0.00999999	          0.33148351	          0.27977907	          0.01221412	
          1.35505042	         -8.16457913	         -4.56333305	          8.16398263	          1.49767560	          0.97837439	         -0.01363567	         31.45752209	          1.42165193	         -5.12466289	         -5.69911614	          5.51716241	          0.19999512	        -10.00450663	         -4.68800116	          5.91351143	         -9.07796787	         10.06044150	         30.42118144	          0.72177762	          3.45270570	         -3.53501316	          0.06167964	          0.08773218	          0.02225617	          0.06474675	          0.12491096	          0.08750894	          0.13184747	          0.11644816	          0.07056930	          0.00999999	          0.00999999	          0.01847063	          0.01221413	          0.32981538	          0.07796420	          0.00999999	          0.00999999	          0.04081262	          0.04847031	          0.02360266	          0.09557235	          0.04111003	          0.49905373	          0.00999999	          0.00999999	          0.30351877	          0.25999264	          0.00999999	
          1.36833523	         -8.23586133	         -4.44633082	          8.06277653	          1.51622430	          0.97682766	         -0.01306268	         31.26230571	          1.49484063	         -4.98882880	         -7.05943574	          4.88236997	          0.17516149	         -9.96118191	         -4.56562229	          5.46575014	        -11.02843169	          9.12645907	         32.50036290	          1.04817562	          3.74450207	         -3.55495786	          0.07057435	          0.07182841	          0.01822165	          0.11915182	          0.13927128	          0.07672162	          0.10794663	          0.16465846	          0.05777675	          0.00999999	          0.00999999	          0.01512234	          0.01000000	          0.36279630	          0.10353558	          0.00999999	          0.00999999	          0.03341425	          0.05421943	          0.02154293	          0.07824733	          0.03365775	          0.47990164	          0.00999999	          0.01221412	          0.25413357	          0.21888593	          0.00999999	
          1.38162004	         -8.28813162	         -4.32333549	          7.91488163	          1.53463215	          0.97600271	         -0.01240719	         30.96975345	          1.58132074	         -4.88113561	         -8.30441356	          4.41744177	          0.14600357	         -9.60478294	         -4.41308373	          5.00681555	        -13.52660122	          7.95296584	         34.55675873	          1.34073999	          4.04077514	         -3.53787299	          0.06670108	          0.05880761	          0.01491849	          0.15317599	          0.14768011	          0.06568779	          0.08837845	          0.19390602	          0.04730318	          0.00999999	          0.01000000	          0.01238102	          0.01139758	          0.38161551	          0.13132665	          0.00999999	          0.00999999	          0.02735704	          0.06587903	          0.02210475	          0.06406294	          0.02755639	          0.43958469	          0.00999999	          0.00999999	          0.20806514	          0.17920707	          0.00999999	
          1.39490485	         -8.31990921	         -4.19812279	          7.72299515	          1.55268534	          0.97595772	         -0.01168908	         30.63191699	          1.67983885	         -4.77984747	         -9.50417720	          4.14017814	          0.12664450	         -8.89726378	         -4.23567520	          4.53079270	        -16.60767187	          6.54360335	         36.38615916	          1.58134540	          4.34703578	         -3.48212250	          0.06489228	          0.04814718	          0.01221412	          0.16505794	          0.12530208	          0.06040733	          0.07235752	          0.19885749	          0.03872823	          0.00999999	          0.09200699	          0.01013663	          0.00999999	          0.38956341	          0.14722805	          0.00999999	          0.00999999	          0.02239785	          0.08962643	          0.03085794	          0.05244984	          0.02256107	          0.37381883	          0.00999999	          0.00999999	          0.17034784	          0.14672105	          0.00999999	
          1.40818966	         -8.33172703	         -4.06046597	          7.49011859	          1.57027313	          0.97672778	         -0.01095197	         30.20054210	          1.78259306	         -4.65391126	        -10.54092501	          3.98160357	          0.10741281	         -7.84689028	         -4.02922990	          4.02657914	        -20.22583198	          4.95889472	         37.56527899	          1.76205093	          4.65387295	         -3.38743126	          0.05312884	          0.03941923	          0.00999999	          0.16212568	          0.10258776	          0.05466631	          0.05924081	          0.18476315	          0.03170772	          0.00999999	          0.16342403	          0.00999999	          0.00999999	          0.38743655	          0.15875066	          0.00999999	          0.00999999	          0.01833765	          0.10412164	          0.02718399	          0.05155686	          0.01847128	          0.30605429	          0.00999999	          0.00999999	          0.13946779	          0.12012399	          0.00999999	
          1.42147446	         -8.32484161	         -3.89684083	          7.21798710	          1.58737962	          0.97829356	         -0.01022463	         29.62077317	          1.87979198	         -4.47804884	        -11.32441555	          3.97266243	          0.09385192	         -6.49403131	         -3.79265268	          3.49248033	        -24.28600720	          3.25884450	         37.70615306	          1.88341238	          4.94505278	         -3.25470472	          0.04349783	          0.03227345	          0.00999999	          0.15459628	          0.08399102	          0.05253725	          0.04850185	          0.16426047	          0.02595985	          0.00999999	          0.20373646	          0.00999999	          0.00999999	          0.37558897	          0.16497228	          0.00999999	          0.00999999	          0.01501346	          0.11345875	          0.02225617	          0.06488493	          0.01512287	          0.25057386	          0.00999999	          0.00999999	          0.11418557	          0.09834834	          0.00999999	
          1.43475927	         -8.30096214	         -3.69387816	          6.90717381	          1.60403877	          0.98055735	         -0.00952861	         28.86485030	          1.95770010	         -4.23674941	        -11.80582365	          4.08506957	          0.08773348	         -4.89930023	         -3.52233630	          2.95264511	        -28.62643127	          1.33562197	         36.83935069	          1.95091020	          5.20392386	         -3.08442612	          0.03561270	          0.02642304	          0.00999999	          0.14825874	          0.06876543	          0.04974692	          0.03970961	          0.14351781	          0.02125395	          0.00999999	          0.21567382	          0.00999999	          0.00999999	          0.35846592	          0.16458863	          0.00999999	          0.00999999	          0.01229188	          0.12205904	          0.01822165	          0.07226300	          0.01238145	          0.20515072	          0.00999999	          0.00999999	          0.09348642	          0.08052010	          0.02605681	
          1.44804408	         -8.26170630	         -3.44059239	          6.55733746	          1.62025880	          0.98334481	         -0.00888221	         27.94994704	          2.00034548	         -3.91748508	        -12.01141958	          4.28817991	          0.08860598	         -3.12248758	         -3.20772661	          2.43639835	        -33.11715643	         -0.65973752	         34.71962880	          1.96585574	          5.41720743	         -2.87677070	          0.02915696	          0.02163316	          0.00999999	          0.14066960	          0.05629988	          0.04584821	          0.03251119	          0.11750141	          0.01740111	          0.00999999	          0.20455820	          0.00999999	          0.00999999	          0.33471592	          0.16725168	          0.00999999	          0.04601442	          0.01006365	          0.12343459	          0.01491850	          0.05916342	          0.01013699	          0.16796173	          0.00999999	          0.00999999	          0.07653953	          0.06592371	          0.08679138	
